Hanif_Deep_7_5_grf.mot
version=1
nRows=32
nColumns=19
inDegrees=yes
endheader
time	right_ground_force_vx	right_ground_force_vy	right_ground_force_vz	right_ground_force_px	right_ground_force_py	right_ground_force_pz	right_ground_torque_x	right_ground_torque_y	right_ground_torque_z	left_ground_force_vx	left_ground_force_vy	left_ground_force_vz	left_ground_force_px	left_ground_force_py	left_ground_force_pz	left_ground_torque_x	left_ground_torque_y	left_ground_torque_z
2.300000	-9.243530	324.332000	47.490800	0.209855	0.000000	-1.432110	-24.104100	3.756120	3.914810	-8.442970	340.244000	-40.317400	0.217879	0.000000	-1.011140	36.994000	-6.413460	7.036910
2.305000	-9.107130	322.293000	47.759300	0.210459	0.000000	-1.432460	-23.835400	3.599680	4.077450	-8.209520	340.530000	-41.266900	0.218698	0.000000	-1.011520	37.146200	-6.354940	7.338780
2.310000	-9.272080	321.574000	47.991300	0.210996	0.000000	-1.432040	-23.924800	3.712990	4.271180	-8.334130	339.401000	-41.622200	0.218871	0.000000	-1.010950	36.834000	-6.224890	7.374780
2.315000	-9.544490	321.942000	48.811400	0.211017	0.000000	-1.431590	-24.097700	3.590060	4.280190	-8.759050	337.904000	-42.195800	0.219151	0.000000	-1.010580	36.554800	-6.124380	7.454680
2.320000	-9.473820	320.932000	48.806400	0.210849	0.000000	-1.431080	-24.187500	3.637930	4.223550	-9.523880	336.954000	-42.886000	0.219043	0.000000	-1.011060	36.633000	-5.997100	7.414700
2.325000	-9.274170	319.592000	48.651600	0.211311	0.000000	-1.431250	-24.030800	3.639250	4.358230	-9.518700	334.048000	-43.273800	0.219466	0.000000	-1.011310	36.402700	-5.893780	7.508810
2.330000	-8.540240	320.305000	49.309600	0.211392	0.000000	-1.430830	-24.207600	3.659570	4.397620	-9.196500	332.177000	-43.883600	0.219135	0.000000	-1.011670	36.308600	-5.765280	7.360850
2.335000	-8.095270	318.670000	49.384700	0.211686	0.000000	-1.430300	-24.243800	3.592330	4.465200	-9.035720	330.028000	-44.561300	0.219609	0.000000	-1.011640	36.060500	-5.642770	7.483790
2.340000	-7.751620	318.724000	49.491100	0.210585	0.000000	-1.430480	-24.187000	3.714430	4.122560	-9.249840	328.764000	-45.146300	0.219975	0.000000	-1.011360	35.833500	-5.555490	7.591580
2.345000	-7.756760	315.961000	50.144500	0.210549	0.000000	-1.429970	-24.139000	3.621820	4.085450	-10.086000	327.828000	-45.089700	0.219856	0.000000	-1.011360	35.753700	-5.490050	7.538080
2.350000	-7.533350	313.622000	50.311200	0.211032	0.000000	-1.429950	-23.961100	3.487080	4.200300	-10.420700	326.892000	-45.507000	0.220321	0.000000	-1.011660	35.755500	-5.338220	7.672250
2.355000	-7.200390	313.339000	50.404200	0.210863	0.000000	-1.429150	-24.184500	3.441750	4.134480	-10.711900	325.414000	-46.271600	0.221001	0.000000	-1.012080	35.738400	-5.235240	7.882600
2.360000	-6.983580	310.738000	50.980200	0.210214	0.000000	-1.429650	-23.821000	3.289970	3.886680	-10.994300	325.301000	-46.722800	0.220745	0.000000	-1.012150	35.755800	-5.182070	7.804410
2.365000	-6.607550	309.250000	51.626400	0.210418	0.000000	-1.428810	-23.963700	3.233790	3.936480	-11.373700	323.804000	-47.470700	0.221627	0.000000	-1.011920	35.521100	-4.960570	8.062360
2.370000	-6.352900	307.663000	52.409900	0.209912	0.000000	-1.429060	-23.758700	3.206380	3.767630	-11.373500	322.811000	-47.979800	0.221103	0.000000	-1.011980	35.429000	-4.856490	7.868790
2.375000	-5.687340	306.422000	52.692300	0.211156	0.000000	-1.428780	-23.739600	3.159720	4.138510	-11.350100	322.674000	-48.924600	0.221319	0.000000	-1.012020	35.428000	-4.828730	7.956960
2.380000	-5.677670	302.790000	53.386500	0.211169	0.000000	-1.427500	-23.846300	3.108400	4.113600	-10.590800	322.578000	-49.792600	0.220702	0.000000	-1.011960	35.378300	-4.846810	7.763350
2.385000	-4.963310	301.156000	53.206500	0.210554	0.000000	-1.427190	-23.801900	3.176390	3.907960	-10.068200	320.549000	-50.244900	0.220724	0.000000	-1.011160	34.889900	-4.843340	7.736300
2.390000	-4.821040	299.570000	52.986600	0.211197	0.000000	-1.427880	-23.468100	3.178880	4.087950	-9.450420	318.389000	-51.096700	0.220120	0.000000	-1.011410	34.718800	-4.809080	7.507120
2.395000	-4.526640	296.992000	52.976200	0.211277	0.000000	-1.427200	-23.465400	3.057570	4.064610	-8.473190	318.347000	-52.023700	0.219330	0.000000	-1.010960	34.546100	-4.755240	7.244590
2.400000	-4.095130	296.051000	53.099400	0.211972	0.000000	-1.425740	-23.816300	3.132700	4.279230	-8.173890	315.828000	-52.779400	0.219295	0.000000	-1.011050	34.295600	-4.682450	7.194280
2.405000	-3.274010	295.731000	52.703500	0.211897	0.000000	-1.425340	-23.899200	3.201190	4.247480	-7.648590	315.844000	-53.593100	0.218347	0.000000	-1.010200	34.016400	-4.669420	6.893150
2.410000	-2.996280	294.610000	53.250500	0.212298	0.000000	-1.425620	-23.723300	3.179600	4.359680	-6.803490	313.626000	-54.822700	0.217603	0.000000	-1.009970	33.687500	-4.648770	6.629170
2.415000	-3.097030	293.691000	53.586800	0.212326	0.000000	-1.424230	-24.059900	3.200660	4.370770	-6.273920	309.707000	-55.865300	0.217196	0.000000	-1.009850	33.218400	-4.611870	6.451910
2.420000	-2.444370	291.443000	53.216000	0.212530	0.000000	-1.424500	-23.787000	3.086010	4.373250	-5.524500	308.315000	-57.222200	0.216505	0.000000	-1.010100	33.131700	-4.603800	6.228240
2.425000	-2.972890	290.122000	53.383400	0.212343	0.000000	-1.423970	-23.840900	3.117950	4.320830	-5.310720	309.233000	-57.755500	0.216628	0.000000	-1.009910	33.163600	-4.535510	6.274380
2.430000	-2.898210	285.013000	53.754900	0.212495	0.000000	-1.423240	-23.628000	3.006930	4.300140	-4.865150	309.545000	-58.372600	0.215791	0.000000	-1.008740	32.824700	-4.579190	6.022430
2.435000	-2.734530	281.789000	54.046800	0.211915	0.000000	-1.423430	-23.305200	3.128580	4.124250	-4.206110	308.730000	-59.935300	0.216096	0.000000	-1.009540	32.972600	-4.566010	6.130110
2.440000	-2.090040	280.836000	54.456300	0.212140	0.000000	-1.423790	-23.116900	3.118800	4.175690	-3.366710	306.808000	-60.448300	0.215588	0.000000	-1.009700	32.800700	-4.591620	5.943530
2.445000	-2.012620	278.463000	54.140100	0.211325	0.000000	-1.423230	-23.076100	3.180620	3.923650	-3.564900	305.313000	-61.171100	0.215298	0.000000	-1.009520	32.591000	-4.499520	5.835800
2.450000	-1.423770	277.089000	54.857700	0.211551	0.000000	-1.422470	-23.166500	3.271400	3.997300	-3.206340	305.750000	-61.589900	0.215006	0.000000	-1.008810	32.412000	-4.475030	5.744190
2.455000	-1.026300	275.473000	55.411000	0.211654	0.000000	-1.422800	-22.934100	3.236660	4.008440	-2.685530	304.449000	-62.542700	0.214664	0.000000	-1.008400	32.138900	-4.437740	5.622720
